<?xml version="1.0" encoding="UTF-8"?>
<svg enable-background="new 0 0 215.37 90.87" version="1.1" viewBox="0 0 215.37 90.87" xml:space="preserve" xmlns="http://www.w3.org/2000/svg">
<style type="text/css">
	.st0{fill:#1485CE;}
	.st1{fill:#FFFFFF;}
</style>

	<rect class="st0" width="215.37" height="90.87"/>

		<path class="st1" d="m76.91 55.35v1.03c0 1.43-1.16 2.59-2.59 2.59h-31.66c-1.43 0-2.59-1.16-2.59-2.59v-31.66c0-1.43 1.16-2.59 2.59-2.59h31.66c1.43 0 2.59 1.16 2.59 2.59v1.03h4.74v-1.03c0-4.04-3.29-7.33-7.33-7.33h-31.66c-4.04 0-7.33 3.29-7.33 7.33v31.66c0 4.04 3.29 7.33 7.33 7.33h31.66c4.04 0 7.33-3.29 7.33-7.33v-1.03h-4.74z"/>
		<path class="st1" d="m55.18 29.46h9.73l-2.4 8.86h0.06l6.93-8.86h12.1l-11.14 11.89 4.58 10.38h-10.47l-3.28-8.95h-0.06l-2.18 8.95h-9.6l5.73-22.27z"/>

			<path class="st1" d="m122.5 63.19c-0.91-1.36-1.9-1.95-3.68-1.95-3.3 0-4.98 3.92-5.24 6.82-0.2 2.31 0.88 3.41 2.66 3.41 1.9 0 3.35-1.06 4.59-2.62h0.04l-0.59 2.58c-1.45 1.63-3.38 2.05-4.52 2.05-3.98 0-4.53-2.77-4.28-5.61 0.38-4.32 2.6-8.98 7.7-8.98 1.9 0 3.38 0.61 4.01 1.84l-0.69 2.46z"/>
			<path class="st1" d="m131.8 71.95c-0.91 0.85-2.35 1.54-4.02 1.54-3.09 0-4.31-1.9-4.07-4.63 0.39-4.43 3.04-7.71 6.63-7.71 2.65 0 4.1 1.19 3.88 3.81-0.09 1.04-0.43 2.07-0.78 2.99h-7.58c-0.06 0.21-0.1 0.47-0.13 0.83-0.16 1.86 0.65 2.92 2.57 2.92 1.5 0 2.79-0.66 3.99-1.78l-0.49 2.03zm0.62-5.79c0.12-0.3 0.18-0.59 0.2-0.83 0.13-1.52-1-2.18-2.37-2.18-1.97 0-3.2 1.21-3.9 3.01h6.07z"/>
			<path class="st1" d="m138.63 61.41h2.05l-0.74 2.84h0.04c1.24-1.78 2.85-3.11 5.09-3.11 1.75 0 2.72 0.95 2.57 2.73-0.03 0.38-0.1 0.76-0.21 1.14l-2.16 8.21h-2.16l1.85-7.05c0.12-0.45 0.22-0.99 0.25-1.38 0.08-0.95-0.4-1.52-1.57-1.52-2.8 0-4.02 2.65-4.62 4.97l-1.31 4.98h-2.16l3.08-11.81z"/>
			<path class="st1" d="m150.44 63.6 0.32-1.33c1.92-0.27 3.62-1.72 4.44-3.73h0.74l-0.88 3.17h3.51l-0.49 1.89h-3.56l-1.05 3.73c-0.11 0.38-0.71 2.44-0.74 2.81-0.07 0.8 0.17 1.55 1.38 1.55 0.8 0 1.69-0.44 2.34-0.93l-0.49 1.9c-0.94 0.51-2.08 0.82-2.99 0.82-1.69 0-2.55-1.12-2.41-2.77 0.07-0.85 0.22-1.4 0.44-2.2l1.38-4.91h-1.94z"/>
			<path class="st1" d="m167.28 71.95c-0.91 0.85-2.35 1.54-4.02 1.54-3.09 0-4.31-1.9-4.07-4.63 0.39-4.43 3.04-7.71 6.63-7.71 2.65 0 4.1 1.19 3.88 3.81-0.09 1.04-0.43 2.07-0.78 2.99h-7.58c-0.06 0.21-0.1 0.47-0.13 0.83-0.16 1.86 0.66 2.92 2.57 2.92 1.5 0 2.79-0.66 3.98-1.78l-0.48 2.03zm0.62-5.79c0.12-0.3 0.18-0.59 0.21-0.83 0.13-1.52-1-2.18-2.37-2.18-1.97 0-3.2 1.21-3.9 3.01h6.06z"/>
			<path class="st1" d="m174.08 61.41h1.99l-0.88 3.11 0.02 0.04c0.73-1.27 1.91-3.41 3.61-3.41 0.36 0 0.81 0.11 1.04 0.27l-0.6 2.27c-0.31-0.17-0.73-0.3-1.2-0.3-2.35 0.06-3.05 2.75-3.71 5.31l-1.17 4.53h-2.16l3.06-11.82z"/>


			<path class="st1" d="m55.18 29.51h9.74l-2.4 8.87h0.06l6.93-8.87h12.11l-11.15 11.9 4.59 10.4h-10.48l-3.28-8.96h-0.06l-2.19 8.96h-9.62l5.75-22.3z"/>
			<path class="st1" d="m83.43 29.51h10.96l2 12.93h0.06l3.37-12.93h9.61l-5.99 22.29h-10.61l-2.62-11.61h-0.06l-3.09 11.61h-9.61l5.98-22.29z"/>
			<path class="st1" d="m112.91 33.7c2.68-4.28 7.34-4.84 13.02-4.84 5.65 0 12.12 0.22 12.12 7.18 0 3.22-1.34 8.49-3.78 12.27-2.44 3.87-8.31 4.15-12.77 4.15-6.93 0-12.11-0.22-12.11-7.18-0.01-3.21 1.3-8.02 3.52-11.58zm7.96 4.75c-0.84 1.59-1.56 4.12-1.56 5.24 0 2.31 1.56 2.84 2.84 2.84 2.28 0 3.22-0.4 4.16-2.12 0.34-0.63 1.53-3.03 1.53-5.56 0-1.62-0.87-2.62-3.03-2.62-1.54 0-2.82 0.09-3.94 2.22z"/>
			<path class="st1" d="m140.92 29.51h9.87l-1.1 15.24h0.06l5.28-15.24h9.74l-1.5 15.24h0.07l5.84-15.24h10.86l-11.24 22.29h-11.58l1.19-15.49h-0.07l-5.18 15.49h-12.24v-22.29z"/>
</svg>
