<?xml version="1.0" encoding="utf-8"?>
<!-- Generator: Adobe Illustrator 19.2.1, SVG Export Plug-In . SVG Version: 6.00 Build 0)  -->
<svg version="1.1" id="layer" xmlns="http://www.w3.org/2000/svg" xmlns:xlink="http://www.w3.org/1999/xlink" x="0px" y="0px"
	 viewBox="0 0 652 652" style="enable-background:new 0 0 652 652;" xml:space="preserve">
<style type="text/css">
	.st0{fill:#707070;}
	.st1{fill:#007348;}
</style>
<g>
	<g>
		<g>
			<rect x="457.3" y="441.5" class="st0" width="49.3" height="197.1"/>
			<polyline class="st0" points="284.3,441.5 284.3,485.1 361.3,485.1 267.9,638.6 432.2,638.6 432.2,593.7 352.5,593.7 
				440.9,441.5 284.3,441.5 			"/>
			<polyline class="st0" points="149.6,638.6 198.9,638.6 198.9,560.9 252,560.9 252,517.9 198.9,517.9 198.9,485.1 258,485.1 
				258,441.5 149.6,441.5 149.6,638.6 			"/>
			<polyline class="st1" points="250.3,197.3 190.9,197.3 190.9,197.5 184.4,197.5 147.4,234.6 252,234.4 252,234.4 287.1,234.4 
				287.2,269.5 287.1,269.5 287,374.1 324.1,337.2 324.1,330.7 324.2,330.6 324.2,271.2 287.2,234.4 250.3,197.3 			"/>
			<polyline class="st1" points="373.2,15 326.8,15 268.6,15 222.2,15 204.9,15 147.4,73.6 203,73.6 268.6,73.6 326.8,73.6 
				392.5,73.6 448,73.6 390.5,15 373.2,15 			"/>
			<polyline class="st1" points="385.8,136 385.7,135.9 385.6,135.7 332.3,82.6 316.9,82.6 216.4,82.6 201,82.6 147.4,136 
				210.2,136 323.1,136 385.6,136 385.6,198.5 385.6,311.4 385.6,374.1 438.9,320.6 438.9,305.2 438.9,204.7 438.9,189.3 385.8,136 
							"/>
			<polyline class="st1" points="332.2,189.3 287,144.1 286.2,144.1 193.4,144.1 192.6,144.1 147.3,189.4 196.8,189.4 282.8,189.4 
				332.2,189.4 332.2,238.7 332.2,324.8 332.2,374.2 377.5,328.9 377.5,328.2 377.5,235.3 377.5,234.6 332.3,189.4 332.2,189.3 			
				"/>
			<polyline class="st1" points="448,73.6 448,129.1 448,194.7 448,253 448,318.6 448,374.1 506.6,316.6 506.6,299.3 506.6,253 
				506.6,194.7 506.6,148.4 506.6,131.1 448,73.6 			"/>
			<path class="st1" d="M184.4,337.2v-59.5h59.5v59.5H184.4 M280.8,323.2v-31.6v-9.2v-4.7h0.2l-18.6-18.5l-18.6-18.6v0.2h-4.7H230
				h-31.6h-9.2h-4.8v-0.1l-18.5,18.6l-18.6,18.5h0.1v4.8v9.2v31.6v9.2v4.7h-0.2l18.6,18.5l18.6,18.6v-0.2h4.7h9.2h31.6h9.2h4.8v0.1
				l18.5-18.6l18.6-18.5h-0.1v-4.8V323.2"/>
		</g>
	</g>
</g>
</svg>
